<svg xmlns="http://www.w3.org/2000/svg" version="1.1" xmlns:xlink="http://www.w3.org/1999/xlink" xmlns:svgjs="http://svgjs.dev/svgjs" width="100%" height="100%" viewBox="0 0 1000 600"><rect width="1000" height="600" x="0" y="0" fill="#ffffff"/><g><circle r="166.66666666666666" cx="462.7488810221354" cy="484.9711458060218" fill="#3e5079" transform="matrix(0.42217994277209275,0,0,0.42217994277209275,0,95.25489537096365)"/><path d="M400.49210479863564 513.51177549817L400.49210479863564 513.51177549817Q401.9966183853097 513.51177549817 421.01367012087076 472.40846431023266Q440.0608121281653 431.3352433940288 444.51417234472075 424.5649322539952Q448.9675325612762 417.79462111396157 454.77495500583836 415.41748964701645Q460.5823774504005 413.0102679083379 473.3406526653971 413.0102679083379Q486.09892788039383 413.0102679083379 486.09892788039383 418.93805143983394L486.09892788039383 418.93805143983394L483.54125478304775 422.12762024358307L480.26141516409814 425.6180917646671Q477.10193663208247 429.7404589921542 475.77796467580924 435.1867981759146Q474.453992719536 440.6331373596749 474.453992719536 453.1206001290703L474.453992719536 453.1206001290703Q474.453992719536 506.2299297386672 477.19220744728295 530.5428692993212L477.19220744728295 530.5428692993212Q478.24536695795484 540.0814854388352 484.0828796742505 545.5278246225955Q489.89030211881266 550.9741638063558 489.89030211881266 552.7795801103648L489.89030211881266 552.7795801103648L487.2423582062661 554.6752672295743Q482.1571022833076 556.9922181530524 467.26241777523364 556.9922181530524Q452.3376429954262 556.9922181530524 448.51617848527394 553.0804828276996L448.51617848527394 553.0804828276996L447.46301897460205 550.7635319042215Q447.46301897460205 547.6943241874062 449.8100601698137 538.1256177761588Q452.1270110932919 528.5569113649112 452.1270110932919 519.0182952253972L452.1270110932919 519.0182952253972Q452.1270110932919 449.63012860798625 447.6736508767365 449.63012860798625L447.6736508767365 449.63012860798625Q445.4770610401922 449.63012860798625 427.48307854356955 492.568946371666Q409.48909604694694 535.5378544070793 405.4269093629268 542.9701515252495Q401.3346324071731 550.4325389151531 394.68468235407346 550.4325389151531L394.68468235407346 550.4325389151531Q390.02069023538365 550.4325389151531 369.22831246754714 499.61006995730094Q348.4660249714441 448.7876009994487 344.85519236342617 448.7876009994487L344.85519236342617 448.7876009994487Q341.90634573354487 448.7876009994487 341.90634573354487 500.72341001143985L341.90634573354487 500.72341001143985Q341.90634573354487 523.7725581592875 342.62851225514845 529.0684459843806Q343.3807690484855 534.3643338094735 345.1260048090275 541.7665406559101Q346.8712405695695 549.1687475023468 346.8712405695695 551.606059512759Q346.8712405695695 554.0433715231711 343.5914009506199 555.6381559250457Q340.3115613316703 557.2028500551868 335.1360345935113 557.2028500551868L335.1360345935113 557.2028500551868L329.29852187721565 557.2028500551868Q311.8461642717957 557.2028500551868 311.8461642717957 552.7795801103648L311.8461642717957 552.7795801103648Q311.8461642717957 550.5529000020872 317.83412834675875 545.4074635356616Q323.8220924217218 540.2921173409695 324.8150713889267 536.5308333742842Q325.8080503561316 532.7695494075988 327.5231958449402 498.4365493596951Q329.20825106201517 464.1336395835249 329.20825106201517 451.85680871626397Q329.20825106201517 439.57997784900306 327.73382774707454 434.76553437164586Q326.2293141604004 429.9510908942886 320.903336063574 424.65520306919564Q315.54726769501406 419.3593152441027 315.54726769501406 416.62110051635574L315.54726769501406 416.62110051635574Q315.54726769501406 413.2208998104722 335.1360345935113 413.2208998104722L335.1360345935113 413.2208998104722Q342.62851225514845 413.2208998104722 348.1350319823758 415.2971285600825Q353.6415517096031 417.37335730969284 358.9675298064295 425.13664741693134Q364.32359817498946 432.89993752416984 381.35469197614066 473.22090164703667Q398.3857857772918 513.51177549817 400.49210479863564 513.51177549817ZM581.9364433515361 427.6341399708104Q573.2403548205596 421.70635643931433 562.4078569965059 421.70635643931433Q551.5753591724521 421.70635643931433 544.6846869454845 427.36332752520906Q537.8241049902505 433.02029861110384 537.8241049902505 443.22090072875443Q537.8241049902505 453.4215028464051 548.084887651368 461.27506376884406L548.084887651368 461.27506376884406Q554.2233030849985 466.0293267027343 573.1500840053592 474.1537000707746Q592.0768649257197 482.3081637105484 599.4790717721565 489.198835937516L599.4790717721565 489.198835937516Q613.6515897586268 502.3181944133144 613.6515897586268 516.4907123997848L613.6515897586268 516.4907123997848L613.6515897586268 520.2820866382035Q613.6515897586268 537.8548053305574 599.6897036742909 548.867844785012L599.6897036742909 548.867844785012Q593.2503855233256 553.9230104362372 583.6214985686112 556.9320376095854Q573.9926116138967 559.9711550546672 564.3637246591823 559.9711550546672L564.3637246591823 559.9711550546672L560.4519893338295 559.9711550546672Q538.666632598788 559.9711550546672 522.26743450404 553.411475816768L522.26743450404 553.411475816768Q514.8652276576032 550.4325389151531 514.8652276576032 537.2229096241542L514.8652276576032 537.2229096241542L514.8652276576032 533.521806200936Q514.8652276576032 517.8447746277915 520.2513862978966 517.8447746277915L520.2513862978966 517.8447746277915Q523.952489721115 517.8447746277915 530.3015370568799 527.8949253867747Q536.6505843926448 537.9450761457579 544.9554993910858 543.0303320687165Q553.2604143895271 548.115587991675 564.9956203655853 548.115587991675Q576.7308263416436 548.115587991675 583.922401285946 541.9169920145775Q591.1440665019818 535.7484863092136 591.1440665019818 526.6311339739684L591.1440665019818 526.6311339739684Q591.1440665019818 514.1436712045731 579.499131341124 505.598034032264L579.499131341124 505.598034032264Q574.5342365050993 501.9872014242461 554.5242058023334 492.71939773033347Q534.5442653713009 483.48168430815423 526.8110655357958 475.4475817553144L526.8110655357958 475.4475817553144Q516.2192898856099 464.43454230085973 516.2192898856099 448.57696909731436Q516.2192898856099 432.68930562203553 527.5633223291329 422.21789105878355L527.5633223291329 422.21789105878355Q533.7920085779638 416.41046861422143 543.0899025436099 413.19080953873873Q552.4178867809896 409.9711504632561 562.1370445509045 409.9711504632561L562.1370445509045 409.9711504632561L566.0487798762572 409.9711504632561Q570.0808762885439 409.9711504632561 577.4830831349807 411.32521269126283L577.4830831349807 411.32521269126283L581.184186558199 412.07746948459993Q587.7438657960982 413.34126089740613 588.2854906873009 413.46162198434007L588.2854906873009 413.46162198434007L591.5653303062505 413.6722538864745L594.7248088382662 413.7625247016749Q599.1781690548216 414.0935176907432 600.953495087097 414.8156842123468L600.953495087097 414.8156842123468Q607.2122716076615 417.37335730969284 607.2122716076615 432.4786737199011Q607.2122716076615 447.6140804018429 601.2844880761654 447.6140804018429L601.2844880761654 447.6140804018429Q598.3356414462842 447.6140804018429 592.407857914788 439.15871404473427Q586.4800743832919 430.7033476876257 581.9364433515361 427.6341399708104L581.9364433515361 427.6341399708104Z " fill="#f5f5f5" transform="matrix(0.42217994277209275,0,0,0.42217994277209275,0,95.25489537096365)"/><path d="M796.6645600102954 515.1078770827721L796.6645600102954 515.1078770827721Q798.088790929728 515.1078770827721 816.091069751356 476.1978883638737Q834.1218331913725 437.3163842633639 838.3375567128932 430.9073451259172Q842.5532802344136 424.4983059884705 848.0508115834233 422.24802113576703Q853.5483429324332 419.96925166467486 865.6258211292217 419.96925166467486Q877.7032993260099 419.96925166467486 877.7032993260099 425.58072148723926L877.7032993260099 425.58072148723926L875.2821067629746 428.60009103643637L872.1772833586116 431.90430676952Q869.186398427803 435.80669948876533 867.9330752187024 440.9624154171113Q866.6797520096017 446.1181313454573 866.6797520096017 457.9392479767478L866.6797520096017 457.9392479767478Q866.6797520096017 508.2145994327184 869.271852282969 531.2301710907491L869.271852282969 531.2301710907491Q870.2688139265719 540.2597951199518 875.7948298939704 545.4155110482977Q881.2923612429801 550.5712269766436 881.2923612429801 552.2803040799629L881.2923612429801 552.2803040799629L878.7857148247787 554.0748350384479Q873.9718143170966 556.268150654374 859.8719282147139 556.268150654374Q845.7435574939426 556.268150654374 842.1260109585838 552.5651502638493L842.1260109585838 552.5651502638493L841.129049314981 550.3718346479232Q841.129049314981 547.4664035722806 843.3508495492957 538.4082949246894Q845.5441651652219 529.3501862770981 845.5441651652219 520.3205622478954L845.5441651652219 520.3205622478954Q845.5441651652219 454.63503224366417 841.3284416437015 454.63503224366417L841.3284416437015 454.63503224366417Q839.2490645013298 454.63503224366417 822.215262704916 495.28258268427044Q805.1814609085022 535.9586177432652 801.3360374260342 542.9943184852623Q797.4621293251776 550.0585038456479 791.1670286612855 550.0585038456479L791.1670286612855 550.0585038456479Q786.7519128110446 550.0585038456479 767.069041504486 501.94798338721495Q747.4146548163162 453.8374629287819 743.996500609678 453.8374629287819L743.996500609678 453.8374629287819Q741.2050080075901 453.8374629287819 741.2050080075901 503.00191426759505L741.2050080075901 503.00191426759505Q741.2050080075901 524.8211319533025 741.8886388489177 529.8344247897052Q742.6007543086341 534.8477176261079 744.2528621751759 541.8549337497163Q745.9049700417177 548.8621498733246 745.9049700417177 551.1694039628054Q745.9049700417177 553.4766580522862 742.8001466373546 554.9863428268848Q739.6953232329915 556.4675429830947 734.7959688701435 556.4675429830947L734.7959688701435 556.4675429830947L729.269952902745 556.4675429830947Q712.7488742373268 556.4675429830947 712.7488742373268 552.2803040799629L712.7488742373268 552.2803040799629Q712.7488742373268 550.1724423192027 718.4173132966687 545.3015725747432Q724.0857523560103 540.4591874486723 725.0257447628359 536.8986101500908Q725.9657371696615 533.3380328515093 727.5893604178145 500.8370832700576Q729.184499047579 468.3646183069944 729.184499047579 456.74289400442444Q729.184499047579 445.12116970185446 727.7887527465351 440.56363075967016Q726.3645218271025 436.00609181748587 721.3227443723111 430.9927989810831Q716.2524822991311 425.9795061446804 716.2524822991311 423.3874058713131L716.2524822991311 423.3874058713131Q716.2524822991311 420.1686439933954 734.7959688701435 420.1686439933954L734.7959688701435 420.1686439933954Q741.8886388489177 420.1686439933954 747.1013240140411 422.1340826622124Q752.3140091791644 424.0995213310294 757.3557866339557 431.4485528753016Q762.4260487071358 438.79758441957375 778.5483427151128 476.96697306036725Q794.6706367230897 515.1078770827721 796.6645600102954 515.1078770827721ZM935.9828285491916 554.3596812223344L935.9828285491916 554.3596812223344Q935.9828285491916 552.0809117512422 941.1385444775377 548.0645805584425Q946.2942604058836 544.0482493656425 948.2027298379234 538.6931411085759Q950.0827146515743 533.3380328515093 950.0827146515743 517.9848235400259Q950.0827146515743 502.603129610154 941.4803598982015 487.0790125883387L941.4803598982015 487.0790125883387Q921.1423423687041 450.41930872214374 914.4484570473709 441.0193846538886L914.4484570473709 441.0193846538886Q910.8309105120121 436.00609181748587 904.5642944665086 432.4455145189044Q898.3261630393939 428.8849372203229 898.3261630393939 425.8940522895145L898.3261630393939 425.8940522895145Q898.3261630393939 421.87772109671454 904.9915637423384 420.5389440324479Q911.6284798268945 419.1716823497926 932.8780051448285 419.1716823497926L932.8780051448285 419.1716823497926Q943.3888293302413 419.1716823497926 943.3888293302413 424.18497518619535L943.3888293302413 424.18497518619535Q943.3888293302413 424.4983059884705 941.6227829901449 427.20434473539245Q939.885221268437 429.91038348231433 939.885221268437 433.4139915441186L939.885221268437 433.4139915441186Q939.885221268437 441.3042308377751 958.2008308923402 473.5488188537291L958.2008308923402 473.5488188537291Q963.4989699126294 482.97722754037284 964.923200832062 482.97722754037284L964.923200832062 482.97722754037284Q968.028024236425 482.97722754037284 979.1939946447766 462.69617924765265Q990.3599650531281 442.4151309549325 990.3599650531281 435.40791483132415L990.3599650531281 435.40791483132415Q990.3599650531281 432.98672226828876 988.2521032923679 428.6855448916023Q986.1442415316077 424.38436751491594 986.1442415316077 424.0995213310294L986.1442415316077 424.0995213310294Q986.1442415316077 418.37411303491035 1005.7701436013889 418.37411303491035L1005.7701436013889 418.37411303491035L1012.4925135411107 418.37411303491035Q1024.2851455540126 418.37411303491035 1024.2851455540126 422.5328673196536Q1024.2851455540126 426.6916216043967 1018.7021603498368 430.39462199492147L1018.7021603498368 430.39462199492147Q1010.1852594516298 436.00609181748587 1007.0804360472667 440.4212076677269L1007.0804360472667 440.4212076677269Q997.652027360623 454.0368552575025 980.4473178538773 488.4747588893826L980.4473178538773 488.4747588893826Q973.3261632567143 502.68858346531994 973.3261632567143 527.5271707002244L973.3261632567143 527.5271707002244Q973.3261632567143 540.1458566463971 975.3770557806973 543.4500723794808Q977.4279483046802 546.7542881125644 982.0994257204192 549.5172960962636Q986.7424185177694 552.2803040799629 986.7424185177694 555.6130044314351Q986.7424185177694 558.974189401296 977.7412791069554 558.974189401296L977.7412791069554 558.974189401296L952.5039072146097 558.3760124151343Q935.9828285491916 558.3760124151343 935.9828285491916 554.3596812223344ZM1072.851419906664 427.20434473539245L1072.851419906664 429.3976603513186Q1072.851419906664 433.81277620155964 1069.1199348977507 437.54426121047305Q1065.3599652704484 441.3042308377751 1061.6569648799236 441.3042308377751L1061.6569648799236 441.3042308377751Q1060.8593955650417 441.5036231664957 1060.346672434046 441.5036231664957L1060.346672434046 441.5036231664957L1058.1533568181198 441.7030154952162Q1053.140063981717 441.7030154952162 1049.1807020256942 438.3987997621326Q1045.221340069672 435.09458402904903 1045.221340069672 429.91038348231433L1045.221340069672 429.91038348231433L1045.221340069672 428.08736790544066Q1045.221340069672 422.8746827403174 1049.3800943544147 419.3425900601245Q1053.538848639158 415.78201276154306 1058.9509261330018 415.78201276154306L1058.9509261330018 415.78201276154306L1059.435164645609 415.78201276154306L1062.853318852247 416.1807974189841Q1065.9581422566102 416.1807974189841 1069.3193272264712 419.5419823888451Q1072.6520275779435 422.8746827403174 1072.6520275779435 426.29283694695556L1072.6520275779435 426.29283694695556L1072.851419906664 427.20434473539245ZM1041.005616548151 474.0615419847248Q1035.8214160014168 471.5548955665234 1035.8214160014168 469.3615799505972Q1035.8214160014168 467.13977971628236 1037.9292777621768 465.85797188879303L1037.9292777621768 465.85797188879303Q1045.221340069672 461.442856038552 1061.0587878937622 461.442856038552L1061.0587878937622 461.442856038552L1063.9642189694046 461.442856038552Q1069.3478118448597 461.442856038552 1070.059927304576 466.45614887495475L1070.059927304576 466.45614887495475Q1070.4587119620173 469.1621876218766 1070.4587119620173 502.85949117565184Q1070.4587119620173 536.556794729427 1071.8544582630611 541.5131183290524Q1073.2786891824935 546.4694419286778 1078.576828202783 549.1185114388225Q1083.8749672230724 551.7675809489672 1083.8749672230724 554.473619695889L1083.8749672230724 554.473619695889Q1083.8749672230724 558.2905585599683 1059.036379988168 558.2905585599683L1059.036379988168 558.2905585599683L1056.0454950573594 558.3760124151343L1043.8255937686276 558.3760124151343Q1036.5050468427444 558.3760124151343 1036.5050468427444 554.7584658797755L1036.5050468427444 554.7584658797755Q1036.5050468427444 551.7675809489672 1040.9771319297624 548.9760883468792Q1045.4207323983924 546.1561111264027 1047.1298095017114 542.766441538153L1047.1298095017114 542.766441538153Q1049.038278933751 539.0634411476283 1049.038278933751 525.4193089394641L1049.038278933751 525.4193089394641L1049.123732788917 522.2290316799351L1049.123732788917 519.1242082755721L1049.2376712624714 514.4242462414445L1049.2376712624714 511.31942283708145L1049.3231251176376 508.2145994327184Q1049.3231251176376 484.48691231497133 1047.7849557246504 480.52755035894876Q1046.2183017132743 476.5681884029262 1041.005616548151 474.0615419847248ZM1150.2726126870198 554.0748350384479L1150.2726126870198 554.0748350384479Q1150.2726126870198 557.9772277576933 1132.1563953918371 557.9772277576933L1132.1563953918371 557.9772277576933L1121.53163273287 557.9772277576933L1117.3159092113497 557.7778354289726L1111.0208085474574 557.6638969554181Q1100.3960458884903 557.6638969554181 1100.3960458884903 553.8754427097274L1100.3960458884903 553.8754427097274Q1100.3960458884903 551.1694039628054 1105.152977159395 548.1215497952196Q1109.9099084303002 545.0452110092453 1111.5620162968416 540.2028258831745Q1113.2141241633835 535.331956138715 1113.2141241633835 511.518815165802Q1113.2141241633835 487.67718957450035 1111.6759547703964 482.5784428829317Q1110.1093007590207 477.4512115729744 1106.805085025937 475.25789595704816L1106.805085025937 475.25789595704816Q1100.908769019486 471.35550323780285 1100.908769019486 469.5609722793178Q1100.908769019486 467.7379567024441 1103.0166307802465 466.3422104014001L1103.0166307802465 466.3422104014001Q1109.2262775889726 462.1549714982683 1124.0382791510715 462.1549714982683L1124.0382791510715 462.1549714982683L1125.946748583111 462.1549714982683Q1131.6436722608414 462.1549714982683 1134.0648648238766 467.908864412776Q1136.4575727685237 473.66275732728366 1137.9672575431223 473.66275732728366Q1139.4484576993323 473.66275732728366 1143.122973471468 470.84278010680714Q1146.7690046252155 468.05128750471926 1151.9247205535617 465.25979490263137Q1157.0804364819078 462.4398176821548 1163.4040217641882 462.4398176821548Q1169.6991224280805 462.4398176821548 1173.0603073979414 465.6870641784611Q1176.4214923678023 468.9627952931561 1176.4214923678023 474.0615419847248L1176.4214923678023 474.0615419847248Q1176.3075538942476 479.27422714984806 1173.7154536208805 481.8663274232154Q1171.0948687291243 484.48691231497133 1168.1039837983158 484.48691231497133Q1165.0846142491187 484.48691231497133 1160.1852598862706 482.0087505151586Q1155.2859055234226 479.5590733337346 1151.9816897903388 479.5590733337346Q1148.677474057255 479.5590733337346 1144.7750813380098 482.32208131743386Q1140.8726886187646 485.08508930113305 1138.1096806350656 492.12079004313006Q1135.3466726513661 499.18497540351575 1135.3466726513661 516.2757464367069Q1135.3466726513661 533.3380328515093 1137.7678652144018 538.2943564511347Q1140.1605731590485 543.2506800507601 1145.2023506138398 547.352465098726Q1150.2726126870198 551.454250146692 1150.2726126870198 554.0748350384479ZM1210.5460651974072 506.39158385584466L1210.5460651974072 506.39158385584466L1210.5460651974072 510.12306886475807Q1210.5460651974072 527.1283860427832 1217.1544966635743 538.3513256879121L1217.1544966635743 538.3513256879121Q1220.2593200679376 543.6494647082013 1225.0732205756194 546.7542881125644Q1229.8871210833017 549.8591115169274 1234.7864754461498 549.8591115169274L1234.7864754461498 549.8591115169274L1236.808883351744 549.8591115169274Q1245.895476617724 549.8591115169274 1252.5608773206686 541.0003951980566Q1259.2262780236133 532.141678879186 1259.2262780236133 515.8199925424884L1259.2262780236133 515.8199925424884L1259.2262780236133 508.69883794532547Q1259.2262780236133 492.5765439373485 1252.5608773206686 481.325119673831Q1245.895476617724 470.0452107919249 1235.697983234587 470.0452107919249L1235.697983234587 470.0452107919249L1232.5931598302236 470.0452107919249Q1223.3641434723004 470.0452107919249 1216.9551043348538 479.95785799117573Q1210.5460651974072 489.87050519042657 1210.5460651974072 506.39158385584466ZM1283.3527497988011 506.8188531316744L1283.3527497988011 506.8188531316744L1283.3527497988011 511.8036613496885Q1283.3527497988011 519.7223852617337 1280.1624725392721 529.1223093299889L1280.1624725392721 529.1223093299889Q1273.4401025995503 548.7766960181586 1253.4154158723281 556.5814814566493L1253.4154158723281 556.5814814566493Q1244.6991226454006 559.9711510448988 1236.6094910230236 559.9711510448988L1236.6094910230236 559.9711510448988L1233.2767906715512 559.9711510448988Q1214.1636117327662 559.9711510448988 1201.3455334578725 547.1530727700056L1201.3455334578725 547.1530727700056Q1195.5346713065878 541.3422106187204 1191.9456093896174 531.8283480769107Q1188.3280628542589 522.3144855351011 1188.3280628542589 511.60426902096793L1188.3280628542589 511.60426902096793L1188.3280628542589 509.89519191764884Q1188.3280628542589 500.18193704711854 1191.746217060897 490.2692898478677L1191.746217060897 490.2692898478677Q1198.354648527064 470.9567185803617 1217.66721979457 463.43677932575764L1217.66721979457 463.43677932575764Q1226.3835130214975 460.04710973750804 1234.3876907887088 460.04710973750804L1234.3876907887088 460.04710973750804L1239.4009836251116 460.04710973750804Q1248.3166691807596 460.04710973750804 1256.9190239341324 464.0349563119193L1256.9190239341324 464.0349563119193Q1273.2407102708298 471.668834040078 1279.6497494082764 488.27536656066206L1279.6497494082764 488.27536656066206Q1283.3527497988011 498.10255990474695 1283.3527497988011 506.8188531316744ZM1321.4081999660402 557.1796584428109L1315.198553157314 557.1796584428109Q1301.0986670549314 557.1796584428109 1301.0986670549314 553.163327250011L1301.0986670549314 553.163327250011Q1301.0986670549314 549.8591115169274 1304.8016674454561 547.7512497561672L1304.8016674454561 547.7512497561672Q1311.4955527667894 543.9627955104766 1312.606452883947 540.9149413428906Q1313.7173530011041 537.8386025569164 1313.7173530011041 511.97456906002043Q1313.7173530011041 486.0820509447359 1312.1506989897284 481.60996585771755Q1310.6125295967413 477.16636538908784 1306.4822599303866 474.2609343134454Q1302.380474882421 471.35550323780285 1302.380474882421 469.5609722793178Q1302.380474882421 467.7379567024441 1305.0865136293428 466.1428180726795L1305.0865136293428 466.1428180726795Q1311.4100989116232 462.4398176821548 1325.111200356565 462.4398176821548L1325.111200356565 462.4398176821548Q1329.2129854045306 462.4398176821548 1331.5202394940115 465.25979490263137L1331.5202394940115 465.25979490263137Q1332.317808808894 466.25675654623416 1333.7705243467153 469.58945689770644Q1335.2232398845363 472.95064186756736 1335.735963015532 472.95064186756736L1335.735963015532 472.95064186756736Q1337.644432447572 472.8651880124014 1341.6322790219829 470.2446031206454L1341.6322790219829 470.2446031206454Q1355.475803558868 460.93013290755624 1366.6702585856078 460.93013290755624L1366.6702585856078 460.93013290755624L1366.8696509143288 460.93013290755624L1370.0884127922463 460.93013290755624Q1378.206529033012 460.93013290755624 1384.7010220256248 464.9464641003562Q1391.223999636626 468.9627952931561 1394.756092316819 476.96697306036725Q1398.3166696154003 484.97115082757847 1398.3166696154003 511.8606305864658Q1398.3166696154003 538.7501103453533 1399.484538969335 541.9119029864935Q1400.6239237048812 545.0452110092453 1405.9790319619478 547.7512497561672Q1411.334140219014 550.4572885030891 1411.334140219014 553.077873394845L1411.334140219014 553.077873394845Q1411.334140219014 557.5784431002521 1382.9064910671395 557.5784431002521L1382.9064910671395 557.5784431002521L1379.8871215179424 557.5784431002521Q1370.8859821071287 557.5784431002521 1370.8859821071287 553.2772657235657L1370.8859821071287 553.2772657235657Q1370.8859821071287 552.3657579351288 1373.0792977230549 548.919119110102Q1375.3010979573696 545.4724802850751 1376.098667272252 541.2567567635546Q1376.896236587134 537.041033242034 1376.896236587134 513.569707689785Q1376.896236587134 490.0698975191471 1373.9908055114915 483.37601219781396L1373.9908055114915 483.37601219781396Q1369.9744743186916 474.14699583989074 1360.6600041056026 474.14699583989074L1360.6600041056026 474.14699583989074Q1353.8521803107146 474.14699583989074 1347.5001104100452 477.30878848103106Q1341.1480405093762 480.47058112217144 1338.299578670511 486.2244740366791Q1335.4226322132567 491.97836695118684 1335.4226322132567 513.7691000185055Q1335.4226322132567 535.5313484674355 1336.647470803969 540.0888874096198Q1337.8438247762924 544.6464263518042 1339.5529018796115 547.4664035722806L1339.5529018796115 547.4664035722806L1343.2559022701362 553.4766580522862Q1343.2559022701362 557.3790507715315 1327.5323929196002 557.3790507715315L1327.5323929196002 557.3790507715315L1321.4081999660402 557.1796584428109ZM1499.2661571847825 489.27232820426485L1499.2661571847825 489.27232820426485Q1495.050433663262 489.27232820426485 1487.5874636454355 480.5560349773374Q1480.152978245997 471.86822636879856 1470.3827541386895 471.86822636879856Q1460.612530031382 471.86822636879856 1454.0040985652145 481.5245120025516Q1447.3956670990474 491.1807976363046 1447.3956670990474 508.898230274046Q1447.3956670990474 526.6441475301762 1455.542267958202 536.5852793478157Q1463.7173534357448 546.5548957838439 1476.8202778945247 546.5548957838439L1476.8202778945247 546.5548957838439Q1484.0553709652427 546.5548957838439 1488.897756091313 544.7603648253587Q1493.768625835773 542.9658338668737 1497.9273801205159 540.9149413428906Q1502.0576497868706 538.8640488189078 1503.7667268901896 538.8640488189078L1503.7667268901896 538.8640488189078Q1506.672157965832 538.8640488189078 1506.672157965832 542.6525030645985L1506.672157965832 542.6525030645985Q1506.672157965832 548.4633652158834 1494.964979808096 554.1602888936138Q1483.2293170319717 559.8856971897328 1472.2342543339519 559.8856971897328L1472.2342543339519 559.8856971897328Q1450.7853366872969 559.8856971897328 1437.7678660836832 546.4694419286778L1437.7678660836832 546.4694419286778Q1432.4697270633937 540.9434259612794 1428.8806651464238 532.2841019711293Q1425.2631186110652 523.624777980979 1425.2631186110652 513.7121307817282L1425.2631186110652 513.7121307817282L1425.2631186110652 508.81277641888005Q1425.2631186110652 508.6133840901595 1425.2631186110652 508.30005328788434L1425.2631186110652 508.30005328788434Q1425.2631186110652 508.10066095916375 1425.2631186110652 507.9012686304432L1425.2631186110652 507.9012686304432Q1425.2631186110652 499.18497540351575 1429.1655113303104 489.87050519042657L1429.1655113303104 489.87050519042657Q1436.884842913635 471.668834040078 1454.0040985652145 464.633133298081L1454.0040985652145 464.633133298081Q1463.9167457644658 460.64528672366976 1473.7439391085504 460.64528672366976L1473.7439391085504 460.64528672366976L1476.0227085796428 460.64528672366976Q1489.5529023142522 460.64528672366976 1498.9528263825073 465.34524875779726L1498.9528263825073 465.34524875779726Q1506.5867041106662 469.1621876218766 1506.5867041106662 478.0778731775247L1506.5867041106662 478.0778731775247Q1506.5867041106662 483.9741891839756 1504.2224807844077 486.62325869412024Q1501.85825745815 489.27232820426485 1499.2661571847825 489.27232820426485ZM1523.5920212886913 554.473619695889L1523.5920212886913 554.473619695889Q1523.5920212886913 552.3657579351288 1528.1495602308755 549.0615422020451Q1532.7070991730598 545.7573264689615 1534.3022378028245 538.6931411085759Q1535.9258610509773 531.6289557481903 1535.9258610509773 485.08508930113305Q1535.9258610509773 438.5127382356872 1534.8719301705974 432.30309142696115Q1533.8179992902174 426.093444618235 1529.7162142422512 423.3874058713131L1529.7162142422512 423.3874058713131Q1523.1077827760842 419.08622849462665 1523.1077827760842 418.08926685102387L1523.1077827760842 418.08926685102387L1523.1077827760842 416.8644282603118Q1523.1077827760842 415.18383577538134 1526.013213851727 413.8735433295033L1526.013213851727 413.8735433295033Q1535.0143532625407 409.97115061025806 1550.02574715336 409.97115061025806L1550.02574715336 409.97115061025806L1552.0481550589543 409.97115061025806Q1557.1469017505233 409.97115061025806 1557.9444710654052 416.8644282603118L1557.9444710654052 416.8644282603118Q1558.05840953896 417.7759360487487 1558.05840953896 431.98976062468597L1558.05840953896 431.98976062468597L1558.05840953896 453.52413212650674L1557.9444710654052 457.62591717447265L1557.9444710654052 463.94950245675335L1557.8590172102395 468.05128750471926Q1557.8590172102395 468.05128750471926 1557.8590172102395 499.7831523896774L1557.8590172102395 499.7831523896774Q1557.8590172102395 529.4356401322641 1558.7990096170652 536.4998254926497Q1559.7390020238904 543.5640108530354 1563.2426100856947 546.7542881125644L1563.2426100856947 546.7542881125644Q1563.6698793615242 547.0676189148396 1567.458333607215 549.3748730043203Q1571.2752724712946 551.6821270938012 1571.2752724712946 554.0748350384479L1571.2752724712946 554.0748350384479Q1571.2752724712946 557.5784431002521 1558.8559788538423 557.5784431002521L1558.8559788538423 557.5784431002521L1554.7541938058766 557.7778354289726L1550.6524087579105 557.7778354289726L1534.2167839476583 558.0911662312478L1532.1089221868983 558.0911662312478Q1523.5920212886913 558.0911662312478 1523.5920212886913 554.473619695889ZM1608.3337609949303 506.39158385584466L1608.3337609949303 506.39158385584466L1608.3337609949303 510.12306886475807Q1608.3337609949303 527.1283860427832 1614.9421924610979 538.3513256879121L1614.9421924610979 538.3513256879121Q1618.0470158654612 543.6494647082013 1622.8324317547545 546.7542881125644Q1627.6463322624368 549.8591115169274 1632.5456866252848 549.8591115169274L1632.5456866252848 549.8591115169274L1634.568094530879 549.8591115169274Q1643.6831724152476 549.8591115169274 1650.3200884998037 541.0003951980566Q1656.9854892027479 532.141678879186 1656.9854892027479 515.8199925424884L1656.9854892027479 515.8199925424884L1656.9854892027479 508.69883794532547Q1656.9854892027479 492.5765439373485 1650.3200884998037 481.325119673831Q1643.6831724152476 470.0452107919249 1633.4571944137215 470.0452107919249L1633.4571944137215 470.0452107919249L1630.3523710093586 470.0452107919249Q1621.151839269824 470.0452107919249 1614.7428001323774 479.95785799117573Q1608.3337609949303 489.87050519042657 1608.3337609949303 506.39158385584466ZM1681.1119609779362 506.8188531316744L1681.1119609779362 506.8188531316744L1681.1119609779362 511.8036613496885Q1681.1119609779362 519.7223852617337 1677.9216837184072 529.1223093299889L1677.9216837184072 529.1223093299889Q1671.1993137786853 548.7766960181586 1651.1746270514632 556.5814814566493L1651.1746270514632 556.5814814566493Q1642.4583338245357 559.9711510448988 1634.3687022021581 559.9711510448988L1634.3687022021581 559.9711510448988L1631.0644864690748 559.9711510448988Q1611.9228229119008 559.9711510448988 1599.1047446370076 547.1530727700056L1599.1047446370076 547.1530727700056Q1593.2938824857224 541.3422106187204 1589.704820568752 531.8283480769107Q1586.0872740333934 522.3144855351011 1586.0872740333934 511.60426902096793L1586.0872740333934 511.60426902096793L1586.0872740333934 509.89519191764884Q1586.0872740333934 500.18193704711854 1589.5054282400315 490.2692898478677L1589.5054282400315 490.2692898478677Q1596.113859706199 470.9567185803617 1615.426430973705 463.43677932575764L1615.426430973705 463.43677932575764Q1624.1427242006325 460.04710973750804 1632.1469019678434 460.04710973750804L1632.1469019678434 460.04710973750804L1637.1601948042462 460.04710973750804Q1646.0758803598942 460.04710973750804 1654.6782351132674 464.0349563119193L1654.6782351132674 464.0349563119193Q1670.9999214499649 471.668834040078 1677.4089605874115 488.27536656066206L1677.4089605874115 488.27536656066206Q1681.1119609779362 498.10255990474695 1681.1119609779362 506.8188531316744ZM1741.6132904354326 544.7603648253587L1741.6132904354326 544.7603648253587L1756.824076654973 542.453110735878Q1759.4446615467286 542.453110735878 1759.4446615467286 546.4979265470665Q1759.4446615467286 550.5712269766436 1751.725329963404 554.8724043533301Q1744.0059983800793 559.1735817300166 1735.4890974818722 559.1735817300166L1735.4890974818722 559.1735817300166L1733.495174194667 559.1735817300166Q1726.7728042549452 559.1735817300166 1721.38921137949 555.6699736682124Q1715.9771338856463 552.1663656064081 1713.4704874674449 547.0676189148396L1713.4704874674449 547.0676189148396Q1709.1693100907582 538.1519333591915 1709.1693100907582 513.2563768875098Q1709.1693100907582 488.38930503421665 1707.403263750662 482.1796582254906Q1705.665702028954 475.97001141676446 1702.8457248084774 473.66275732728366L1702.8457248084774 473.66275732728366Q1697.633039643354 469.44703380576317 1697.633039643354 469.04824914832204L1697.633039643354 469.04824914832204Q1697.633039643354 466.45614887495475 1700.339078390276 464.633133298081L1700.339078390276 464.633133298081Q1707.2608406587187 460.04710973750804 1707.9159868816573 459.39196351456906Q1708.5711331045964 458.7368172916301 1715.5783492282048 443.01330794109424L1715.5783492282048 443.01330794109424Q1719.081957290009 435.2085225026036 1723.525557758639 435.2085225026036Q1727.997642845657 435.2085225026036 1729.478843001867 438.3987997621326L1729.478843001867 438.3987997621326Q1729.877627659308 439.1963690770149 1731.2448893419632 447.1150929890601Q1732.5836664062303 455.03381690110535 1735.0903128244313 457.28410175380884Q1737.5969592426327 459.5343866065123 1746.2277986143945 461.5852791304952Q1754.8301533677673 463.6361716544782 1754.8301533677673 467.45311051855754Q1754.8301533677673 471.24156476424827 1745.3162908259574 473.1500341962879Q1735.8024282841475 475.0585036283276 1733.8085049969422 478.0778731775247L1733.8085049969422 478.0778731775247Q1730.304896935138 483.1766198690934 1730.304896935138 506.90430698684037Q1730.304896935138 530.6319941045874 1732.4982125510642 536.8416409133135L1732.4982125510642 536.8416409133135Q1735.2897051531518 544.7603648253587 1741.6132904354326 544.7603648253587ZM1775.5669555547056 552.4796964086834L1775.5669555547056 552.4796964086834Q1775.5669555547056 550.6566808318096 1779.8681329313922 545.8997495609049Q1784.1693103080788 541.1428182899999 1785.2232411884588 536.3574024007064Q1786.2771720688388 531.5435018930243 1786.2771720688388 485.68326628729477Q1786.2771720688388 439.8230306815652 1784.1693103080788 430.1097758110349L1784.1693103080788 430.1097758110349Q1783.1723486644755 425.3813291585187 1779.953586786558 423.1880135425925L1779.953586786558 423.1880135425925Q1774.1427246352732 419.08622849462665 1774.1427246352732 418.7728976923515L1774.1427246352732 418.7728976923515Q1774.1427246352732 415.06989730182676 1778.0451173545184 413.5602125272282L1778.0451173545184 413.5602125272282Q1785.4796027539564 410.68326606997437 1795.3922499532073 410.68326606997437L1795.3922499532073 410.68326606997437L1798.696465686291 410.68326606997437Q1803.2824892468639 410.68326606997437 1805.247927915681 414.38626646049914Q1807.213366584498 418.08926685102387 1807.213366584498 430.7079527971966L1807.213366584498 430.7079527971966L1807.0994281109433 434.41095318772136Q1807.0139742557772 438.11395357824614 1807.0139742557772 441.81695396877086L1807.0139742557772 441.81695396877086L1806.786097308668 449.22295474982036Q1806.786097308668 452.9259551403451 1806.786097308668 456.62895553086986L1806.786097308668 456.62895553086986Q1806.786097308668 469.76036460803834 1811.40060548763 469.76036460803834L1811.40060548763 469.76036460803834Q1811.9133286186257 469.6464261344837 1816.4993521791985 467.65250284727813L1816.4993521791985 467.65250284727813Q1830.4283305712493 461.442856038552 1839.856739257893 461.442856038552L1839.856739257893 461.442856038552Q1857.46023342208 461.442856038552 1864.5813880192427 475.57122675932334L1864.5813880192427 475.57122675932334Q1869.2813500533703 485.170543156299 1869.2813500533703 522.8272086660968L1869.2813500533703 522.8272086660968Q1869.2813500533703 537.3543640443092 1870.3352809337507 540.9149413428906Q1871.3892118141307 544.4470340230836 1876.0606892298692 548.2639728871629Q1880.70368202722 552.0809117512422 1880.70368202722 553.077873394845L1880.70368202722 553.077873394845Q1880.70368202722 556.1826967992081 1876.6588662160311 557.2651122979769Q1872.585565786454 558.3760124151343 1855.97903326587 558.3760124151343L1855.97903326587 558.3760124151343L1852.4754252040657 558.3760124151343Q1841.5373317428234 558.3760124151343 1841.5373317428234 553.9608965648933L1841.5373317428234 553.9608965648933Q1841.5373317428234 552.9639349212905 1844.1579166345796 548.919119110102Q1846.7500169079467 544.8458186805246 1847.547586222829 539.747071988956Q1848.3451555377114 534.6483252973874 1848.3451555377114 513.0000153220119Q1848.3451555377114 491.3801899650251 1846.3512322505057 485.7687201424607L1846.3512322505057 485.7687201424607Q1839.4579546004516 476.7675807316467 1831.0265075574112 474.7736574444411L1831.0265075574112 474.7736574444411Q1819.5187217283956 474.7736574444411 1812.5969594599533 482.97722754037284L1812.5969594599533 482.97722754037284Q1807.4982127683847 488.98748202037837 1807.4982127683847 510.35094581186723Q1807.4982127683847 531.7428942217448 1808.4951744119871 537.6107256098071Q1809.49213605559 543.4500723794808 1812.853321025451 548.2070036503856Q1816.2145059953118 552.9639349212905 1816.2145059953118 554.0748350384479L1816.2145059953118 554.0748350384479Q1816.2145059953118 557.6638969554181 1795.8764884658149 557.6638969554181Q1775.5669555547056 557.6638969554181 1775.5669555547056 552.4796964086834ZM1960.716975080943 492.8898747396237L1960.716975080943 492.8898747396237L1960.716975080943 489.7850513352606Q1960.716975080943 482.3790505542111 1955.4188360606536 476.42576531098285Q1950.092212421976 470.443995449366 1942.40136545704 470.443995449366L1942.40136545704 470.443995449366L1940.492896025 470.443995449366Q1939.0971497239561 470.64338777808655 1938.5844265929604 470.64338777808655L1938.5844265929604 470.64338777808655Q1931.577210469352 470.64338777808655 1925.3105944238487 478.6760501636864Q1919.0439783783454 486.68022793089756 1919.0439783783454 495.79530581526615L1919.0439783783454 495.79530581526615L1919.0439783783454 497.0771136427555Q1919.0439783783454 500.2958755206732 1922.8609172424244 500.2958755206732L1922.8609172424244 500.2958755206732Q1924.370602017023 500.6092063229483 1924.4560558721892 500.6092063229483L1924.4560558721892 500.6092063229483L1926.76330996167 500.69466017811425L1927.3614869478315 500.69466017811425L1928.0736024075482 500.6092063229483L1947.3861736750537 499.4983062057909L1951.0037202104127 499.0995215483498Q1960.716975080943 499.0995215483498 1960.716975080943 492.8898747396237ZM1919.0439783783454 519.4090544594585L1919.0439783783454 519.4090544594585Q1919.0439783783454 530.8313864333079 1927.6748177501067 538.5507180166326Q1936.2771725034795 546.2700495999572 1949.494035435814 546.2700495999572L1949.494035435814 546.2700495999572Q1954.8206590744917 546.2700495999572 1959.1503210695673 544.7033955885815Q1963.5084676830306 543.1652261955942 1968.6641836113768 540.9434259612794Q1973.8483841581115 538.7501103453533 1975.1301919856005 538.7501103453533L1975.1301919856005 538.7501103453533Q1979.1465231784005 538.7501103453533 1979.1465231784005 543.0512877220397L1979.1465231784005 543.0512877220397Q1979.1465231784005 548.8621498733246 1964.3345216163016 555.4705813394919L1964.3345216163016 555.4705813394919Q1954.7067206009374 559.7717587161783 1943.683173284529 559.7717587161783L1943.683173284529 559.7717587161783L1941.4898576686028 559.7717587161783Q1922.661524913704 559.7717587161783 1910.2422312962517 548.3494267423289L1910.2422312962517 548.3494267423289Q1903.5483459749184 542.1682645519913 1899.8168609660052 532.4834942998498Q1896.1138605754804 522.8272086660968 1896.1138605754804 511.7182074945226L1896.1138605754804 511.7182074945226L1896.2277990490352 509.41095340504177L1896.2277990490352 507.10369931556096Q1896.2277990490352 497.5043829185853 1900.642914899276 488.1899127054961L1900.642914899276 488.1899127054961Q1905.1434846046832 478.87544249240693 1911.3531314134093 472.8651880124014L1911.3531314134093 472.8651880124014Q1924.4560558721892 460.24650206622863 1942.4868193122056 460.132563592674L1942.4868193122056 460.132563592674Q1969.7181144917572 460.132563592674 1978.7477385209595 481.38208891060833L1978.7477385209595 481.38208891060833Q1981.5392311230476 488.07597423194153 1981.5392311230476 493.68744405450593L1981.5392311230476 493.68744405450593L1981.5392311230476 495.68136734171156Q1981.5392311230476 502.603129610154 1975.8423074453171 504.93886831802337Q1970.1168991491982 507.30309164428155 1948.8958584496522 508.81277641888005Q1927.6748177501067 510.3224611934786 1925.8802867916215 510.8066997060857L1925.8802867916215 510.8066997060857Q1919.0439783783454 512.5157768094048 1919.0439783783454 519.4090544594585ZM2064.6573475811338 513.0000153220119Q2072.576071493179 520.519954576616 2072.576071493179 531.9992557872426Q2072.576071493179 543.4500723794808 2063.147662806535 551.6251578570239Q2053.74773873828 559.7717587161783 2037.1127215993074 559.7717587161783L2037.1127215993074 559.7717587161783L2034.4066828523855 559.7717587161783Q2015.4928962423205 559.7717587161783 2005.5802490430697 555.0717966820507L2005.5802490430697 555.0717966820507Q2000.0827176940597 552.4796964086834 2000.0827176940597 543.4500723794808L2000.0827176940597 543.4500723794808L2000.0827176940597 540.9434259612794Q2000.0827176940597 529.4356401322641 2004.3838950707463 529.4356401322641L2004.3838950707463 529.4356401322641Q2007.9729569877163 529.4356401322641 2012.9007959689534 536.1864946903745Q2017.8001503318014 542.9658338668737 2021.1043660648847 545.2730879563544L2021.1043660648847 545.2730879563544Q2027.5134052023313 549.6597191882069 2036.1727291924817 549.6597191882069Q2044.8320531826316 549.6597191882069 2048.9338382305978 546.0136880344594Q2053.035623278564 542.367656880712 2053.035623278564 536.3574024007064Q2053.035623278564 530.3471479207009 2046.0284071549554 525.2199166107436L2046.0284071549554 525.2199166107436Q2042.3254067644307 522.5138778638216 2028.7667284114323 516.7315003309252Q2015.1795654400453 510.9206381796403 2008.485680118712 504.5400836605823Q2001.7633101789902 498.1880137599129 2001.7633101789902 486.566289457343Q2001.7633101789902 474.9730497731616 2011.4765650495206 467.7094720840554Q2021.189819920051 460.44589439494916 2035.4321291143765 460.44589439494916L2035.4321291143765 460.44589439494916L2038.1381678612988 460.44589439494916Q2056.7386236690886 460.44589439494916 2064.2585629236924 464.83252562680156L2064.2585629236924 464.83252562680156Q2068.160955642938 467.13977971628236 2068.160955642938 477.6506039016949Q2068.160955642938 488.1899127054961 2063.147662806535 488.1899127054961L2063.147662806535 488.1899127054961Q2060.356170204447 488.1899127054961 2055.5137850783763 481.9232966599927Q2050.6429153339172 475.6566806144893 2046.6265841411168 473.0076111043447Q2042.638737566706 470.3585415942 2035.5745522063203 470.3585415942Q2028.5103668459342 470.3585415942 2024.4085817979685 473.5488188537291Q2020.3067967500024 476.7675807316467 2020.3067967500024 482.83480444842957Q2020.3067967500024 488.8735435468238 2027.798251386218 493.68744405450593L2027.798251386218 493.68744405450593Q2029.7067208182575 494.9977365003839 2044.4332685251907 501.40677563783055Q2059.159816232124 507.81581477527726 2064.6573475811338 513.0000153220119L2064.6573475811338 513.0000153220119Z " fill="#c1c0de" transform="matrix(0.42217994277209275,0,0,0.42217994277209275,0,95.25489537096365)"/></g></svg>